<?xml version="1.0" encoding="utf-8"?>
<svg xmlns="http://www.w3.org/2000/svg" viewBox="0 0 50 50" fill="#000000"><path d="M 44.984375 3.9863281 A 1.0001 1.0001 0 0 0 44 5 L 44 45 A 1.0001 1.0001 0 1 0 46 45 L 46 5 A 1.0001 1.0001 0 0 0 44.984375 3.9863281 z M 5 4 A 1 1 0 0 0 5 6 A 1 1 0 0 0 5 4 z M 9 4 A 1 1 0 0 0 9 6 A 1 1 0 0 0 9 4 z M 13 4 A 1 1 0 0 0 13 6 A 1 1 0 0 0 13 4 z M 17 4 A 1 1 0 0 0 17 6 A 1 1 0 0 0 17 4 z M 21 4 A 1 1 0 0 0 21 6 A 1 1 0 0 0 21 4 z M 25 4 A 1 1 0 0 0 25 6 A 1 1 0 0 0 25 4 z M 29 4 A 1 1 0 0 0 29 6 A 1 1 0 0 0 29 4 z M 33 4 A 1 1 0 0 0 33 6 A 1 1 0 0 0 33 4 z M 37 4 A 1 1 0 0 0 37 6 A 1 1 0 0 0 37 4 z M 41 4 A 1 1 0 0 0 41 6 A 1 1 0 0 0 41 4 z M 5 8 A 1 1 0 0 0 5 10 A 1 1 0 0 0 5 8 z M 25 8 A 1 1 0 0 0 25 10 A 1 1 0 0 0 25 8 z M 5 12 A 1 1 0 0 0 5 14 A 1 1 0 0 0 5 12 z M 25 12 A 1 1 0 0 0 25 14 A 1 1 0 0 0 25 12 z M 5 16 A 1 1 0 0 0 5 18 A 1 1 0 0 0 5 16 z M 25 16 A 1 1 0 0 0 25 18 A 1 1 0 0 0 25 16 z M 5 20 A 1 1 0 0 0 5 22 A 1 1 0 0 0 5 20 z M 25 20 A 1 1 0 0 0 25 22 A 1 1 0 0 0 25 20 z M 5 24 A 1 1 0 0 0 5 26 A 1 1 0 0 0 5 24 z M 9 24 A 1 1 0 0 0 9 26 A 1 1 0 0 0 9 24 z M 13 24 A 1 1 0 0 0 13 26 A 1 1 0 0 0 13 24 z M 17 24 A 1 1 0 0 0 17 26 A 1 1 0 0 0 17 24 z M 21 24 A 1 1 0 0 0 21 26 A 1 1 0 0 0 21 24 z M 25 24 A 1 1 0 0 0 25 26 A 1 1 0 0 0 25 24 z M 29 24 A 1 1 0 0 0 29 26 A 1 1 0 0 0 29 24 z M 33 24 A 1 1 0 0 0 33 26 A 1 1 0 0 0 33 24 z M 37 24 A 1 1 0 0 0 37 26 A 1 1 0 0 0 37 24 z M 41 24 A 1 1 0 0 0 41 26 A 1 1 0 0 0 41 24 z M 5 28 A 1 1 0 0 0 5 30 A 1 1 0 0 0 5 28 z M 25 28 A 1 1 0 0 0 25 30 A 1 1 0 0 0 25 28 z M 5 32 A 1 1 0 0 0 5 34 A 1 1 0 0 0 5 32 z M 25 32 A 1 1 0 0 0 25 34 A 1 1 0 0 0 25 32 z M 5 36 A 1 1 0 0 0 5 38 A 1 1 0 0 0 5 36 z M 25 36 A 1 1 0 0 0 25 38 A 1 1 0 0 0 25 36 z M 5 40 A 1 1 0 0 0 5 42 A 1 1 0 0 0 5 40 z M 25 40 A 1 1 0 0 0 25 42 A 1 1 0 0 0 25 40 z M 5 44 A 1 1 0 0 0 5 46 A 1 1 0 0 0 5 44 z M 9 44 A 1 1 0 0 0 9 46 A 1 1 0 0 0 9 44 z M 13 44 A 1 1 0 0 0 13 46 A 1 1 0 0 0 13 44 z M 17 44 A 1 1 0 0 0 17 46 A 1 1 0 0 0 17 44 z M 21 44 A 1 1 0 0 0 21 46 A 1 1 0 0 0 21 44 z M 25 44 A 1 1 0 0 0 25 46 A 1 1 0 0 0 25 44 z M 29 44 A 1 1 0 0 0 29 46 A 1 1 0 0 0 29 44 z M 33 44 A 1 1 0 0 0 33 46 A 1 1 0 0 0 33 44 z M 37 44 A 1 1 0 0 0 37 46 A 1 1 0 0 0 37 44 z M 41 44 A 1 1 0 0 0 41 46 A 1 1 0 0 0 41 44 z" fill="#000000"/></svg>
